<svg width="540" height="300" viewBox="0 0 540 300" fill="none" xmlns="http://www.w3.org/2000/svg">
<rect x="24.1285" y="128.242" width="471" height="150" transform="rotate(-12.7038 24.1285 128.242)" stroke="#7D58C9" stroke-width="4"/>
<rect x="36.2572" y="263.896" width="32" height="34" transform="rotate(-12.7038 36.2572 263.896)" stroke="#7D58C9" stroke-width="4"/>
<rect x="498.214" y="157.707" width="32" height="34" transform="rotate(-12.7038 498.214 157.707)" stroke="#7D58C9" stroke-width="4"/>
<rect x="464.787" y="9.42806" width="32" height="34" transform="rotate(-12.7038 464.787 9.42806)" stroke="#7D58C9" stroke-width="4"/>
<rect x="3.36633" y="113.446" width="32" height="34" transform="rotate(-12.7038 3.36633 113.446)" stroke="#7D58C9" stroke-width="4"/>
<path d="M168.47 201.417L153.8 132.358L169.157 129.096L183.827 198.155L168.47 201.417ZM211.216 192.336L196.546 123.277L212.001 119.994L226.671 189.053L211.216 192.336ZM171.535 170.608L168.709 157.304L207.347 149.097L210.173 162.4L171.535 170.608ZM262.257 182.618C257.106 183.713 252.287 183.646 247.8 182.418C243.365 181.111 239.605 178.809 236.519 175.511C233.433 172.214 231.385 168.185 230.373 163.425C229.362 158.664 229.57 154.19 230.998 150.002C232.477 145.735 234.911 142.116 238.302 139.147C241.692 136.178 245.8 134.181 250.626 133.156C255.321 132.158 259.677 132.289 263.693 133.549C267.709 134.809 271.108 137.017 273.892 140.174C276.741 143.318 278.657 147.204 279.64 151.834C279.82 152.682 279.949 153.609 280.026 154.615C280.155 155.542 280.221 156.652 280.223 157.947L239.258 166.751L237.077 156.48L271.683 149.026L266.141 154.702C265.494 151.977 264.593 149.817 263.436 148.223C262.266 146.563 260.801 145.443 259.042 144.862C257.334 144.203 255.372 144.108 253.155 144.579C250.807 145.078 248.871 146.069 247.345 147.551C245.872 148.955 244.853 150.739 244.291 152.903C243.793 155.053 243.843 157.53 244.438 160.335C245.034 163.139 246.035 165.448 247.443 167.261C248.902 168.996 250.662 170.224 252.724 170.944C254.836 171.586 257.164 171.637 259.708 171.097C262.055 170.598 264.092 169.756 265.816 168.572C267.528 167.323 268.927 165.73 270.016 163.795L279.978 170.267C278.212 173.504 275.812 176.161 272.777 178.237C269.742 180.313 266.235 181.773 262.257 182.618ZM292.142 175.145L277.056 104.13L292.022 100.951L307.108 171.966L292.142 175.145ZM317.647 169.727L302.562 98.7119L317.528 95.5327L332.613 166.548L317.647 169.727ZM366.27 160.523C361.379 161.562 356.716 161.428 352.281 160.121C347.898 158.735 344.163 156.393 341.077 153.096C337.991 149.798 335.949 145.802 334.952 141.107C333.955 136.412 334.202 131.963 335.695 127.761C337.188 123.559 339.662 119.967 343.118 116.984C346.559 113.935 350.758 111.885 355.714 110.832C360.67 109.779 365.333 109.913 369.703 111.234C374.073 112.555 377.801 114.864 380.887 118.161C383.959 121.393 385.993 125.357 386.991 130.052C387.988 134.748 387.747 139.229 386.269 143.496C384.79 147.763 382.329 151.421 378.888 154.469C375.432 157.452 371.226 159.47 366.27 160.523ZM363.382 146.926C365.534 146.469 367.328 145.611 368.764 144.352C370.187 143.027 371.142 141.427 371.629 139.552C372.168 137.597 372.202 135.511 371.731 133.294C371.26 131.077 370.395 129.25 369.136 127.814C367.863 126.312 366.314 125.278 364.49 124.711C362.717 124.066 360.755 123.971 358.603 124.428C356.516 124.872 354.761 125.756 353.339 127.08C351.902 128.339 350.908 129.914 350.355 131.803C349.802 133.693 349.761 135.746 350.232 137.963C350.689 140.115 351.562 141.974 352.849 143.541C354.122 145.043 355.677 146.109 357.515 146.741C359.34 147.308 361.295 147.37 363.382 146.926Z" fill="black"/>
</svg>
