<svg width="440" height="299" viewBox="0 0 440 299" fill="none" xmlns="http://www.w3.org/2000/svg">
<path d="M170.376 256.64C167.304 256.64 164.531 255.957 162.056 254.592C159.624 253.184 157.683 251.264 156.232 248.832C154.824 246.4 154.12 243.669 154.12 240.64C154.12 237.611 154.824 234.901 156.232 232.512C157.64 230.08 159.539 228.16 161.928 226.752C164.36 225.344 167.048 224.64 169.992 224.64C172.851 224.64 175.368 225.301 177.544 226.624C179.763 227.947 181.491 229.76 182.728 232.064C184.008 234.368 184.648 236.992 184.648 239.936C184.648 240.448 184.605 240.981 184.52 241.536C184.477 242.048 184.392 242.624 184.264 243.264H159.048V237.504H180.616L177.992 239.808C177.907 237.931 177.544 236.352 176.904 235.072C176.264 233.792 175.347 232.811 174.152 232.128C173 231.445 171.571 231.104 169.864 231.104C168.072 231.104 166.515 231.488 165.192 232.256C163.869 233.024 162.845 234.112 162.12 235.52C161.395 236.885 161.032 238.528 161.032 240.448C161.032 242.368 161.416 244.053 162.184 245.504C162.952 246.955 164.04 248.085 165.448 248.896C166.856 249.664 168.477 250.048 170.312 250.048C171.891 250.048 173.341 249.771 174.664 249.216C176.029 248.661 177.181 247.851 178.12 246.784L182.6 251.328C181.107 253.077 179.293 254.4 177.16 255.296C175.027 256.192 172.765 256.64 170.376 256.64ZM199.06 256.64C197.353 256.64 195.71 256.427 194.132 256C192.553 255.531 191.102 254.891 189.78 254.08C188.457 253.227 187.305 252.203 186.324 251.008L190.804 246.528C191.87 247.765 193.086 248.704 194.452 249.344C195.86 249.941 197.438 250.24 199.188 250.24C200.766 250.24 201.961 250.005 202.772 249.536C203.582 249.067 203.988 248.384 203.988 247.488C203.988 246.549 203.604 245.824 202.836 245.312C202.068 244.8 201.065 244.373 199.828 244.032C198.633 243.648 197.353 243.264 195.988 242.88C194.665 242.496 193.385 241.984 192.148 241.344C190.953 240.661 189.972 239.744 189.204 238.592C188.436 237.44 188.052 235.947 188.052 234.112C188.052 232.149 188.5 230.464 189.396 229.056C190.334 227.648 191.636 226.56 193.3 225.792C195.006 225.024 197.033 224.64 199.38 224.64C201.854 224.64 204.03 225.088 205.908 225.984C207.828 226.837 209.428 228.139 210.708 229.888L206.228 234.368C205.332 233.259 204.308 232.427 203.156 231.872C202.004 231.317 200.681 231.04 199.188 231.04C197.78 231.04 196.692 231.253 195.924 231.68C195.156 232.107 194.772 232.725 194.772 233.536C194.772 234.389 195.156 235.051 195.924 235.52C196.692 235.989 197.673 236.395 198.868 236.736C200.105 237.077 201.385 237.461 202.708 237.888C204.073 238.272 205.353 238.827 206.548 239.552C207.785 240.235 208.788 241.173 209.556 242.368C210.324 243.52 210.708 245.035 210.708 246.912C210.708 249.899 209.662 252.267 207.572 254.016C205.481 255.765 202.644 256.64 199.06 256.64ZM219.904 256V212.48H226.944V256H219.904ZM212.544 231.68V225.28H234.304V231.68H212.544ZM238.203 256V225.28H245.243V256H238.203ZM241.723 219.648C240.528 219.648 239.526 219.243 238.715 218.432C237.947 217.621 237.563 216.619 237.563 215.424C237.563 214.229 237.947 213.227 238.715 212.416C239.526 211.605 240.528 211.2 241.723 211.2C242.96 211.2 243.963 211.605 244.731 212.416C245.499 213.227 245.883 214.229 245.883 215.424C245.883 216.619 245.499 217.621 244.731 218.432C243.963 219.243 242.96 219.648 241.723 219.648ZM251.859 256V225.28H258.899V256H251.859ZM272.275 256V237.696C272.275 235.648 271.635 234.069 270.355 232.96C269.075 231.808 267.496 231.232 265.619 231.232C264.339 231.232 263.187 231.488 262.163 232C261.182 232.512 260.392 233.259 259.795 234.24C259.198 235.179 258.899 236.331 258.899 237.696L256.147 236.16C256.147 233.813 256.659 231.787 257.683 230.08C258.707 228.373 260.094 227.051 261.843 226.112C263.592 225.131 265.555 224.64 267.731 224.64C269.907 224.64 271.87 225.109 273.619 226.048C275.368 226.987 276.755 228.309 277.779 230.016C278.803 231.723 279.315 233.771 279.315 236.16V256H272.275ZM292.691 256V237.696C292.691 235.648 292.051 234.069 290.771 232.96C289.491 231.808 287.912 231.232 286.035 231.232C284.798 231.232 283.667 231.488 282.643 232C281.619 232.512 280.808 233.259 280.211 234.24C279.614 235.179 279.315 236.331 279.315 237.696L275.347 236.16C275.56 233.813 276.243 231.787 277.395 230.08C278.547 228.373 280.019 227.051 281.811 226.112C283.646 225.131 285.651 224.64 287.827 224.64C290.046 224.64 292.051 225.109 293.843 226.048C295.635 226.987 297.064 228.309 298.131 230.016C299.198 231.723 299.731 233.771 299.731 236.16V256H292.691ZM319.784 256.64C316.797 256.64 314.088 255.936 311.656 254.528C309.224 253.077 307.283 251.136 305.832 248.704C304.424 246.272 303.72 243.563 303.72 240.576C303.72 237.589 304.424 234.901 305.832 232.512C307.283 230.123 309.224 228.224 311.656 226.816C314.088 225.365 316.797 224.64 319.784 224.64C322.813 224.64 325.544 225.344 327.976 226.752C330.408 228.16 332.328 230.08 333.736 232.512C335.187 234.901 335.912 237.589 335.912 240.576C335.912 243.563 335.187 246.272 333.736 248.704C332.328 251.136 330.408 253.077 327.976 254.528C325.544 255.936 322.813 256.64 319.784 256.64ZM319.784 249.856C321.533 249.856 323.069 249.472 324.392 248.704C325.757 247.893 326.803 246.784 327.528 245.376C328.296 243.968 328.68 242.368 328.68 240.576C328.68 238.784 328.296 237.205 327.528 235.84C326.76 234.475 325.715 233.408 324.392 232.64C323.069 231.829 321.533 231.424 319.784 231.424C318.077 231.424 316.541 231.829 315.176 232.64C313.853 233.408 312.808 234.475 312.04 235.84C311.315 237.205 310.952 238.784 310.952 240.576C310.952 242.368 311.315 243.968 312.04 245.376C312.808 246.784 313.853 247.893 315.176 248.704C316.541 249.472 318.077 249.856 319.784 249.856ZM361.543 256V238.272C361.543 236.224 360.881 234.539 359.559 233.216C358.279 231.893 356.615 231.232 354.567 231.232C353.201 231.232 351.985 231.531 350.919 232.128C349.852 232.725 349.02 233.557 348.423 234.624C347.825 235.691 347.527 236.907 347.527 238.272L344.775 236.736C344.775 234.389 345.287 232.32 346.311 230.528C347.335 228.693 348.743 227.264 350.535 226.24C352.369 225.173 354.417 224.64 356.679 224.64C358.983 224.64 361.031 225.237 362.823 226.432C364.615 227.584 366.023 229.099 367.047 230.976C368.071 232.811 368.583 234.731 368.583 236.736V256H361.543ZM340.487 256V225.28H347.527V256H340.487ZM384.377 256.32L371.257 225.28H379.001L387.961 248.064H385.721L395.193 225.28H403.001L388.729 256.32H384.377ZM375.225 268.8L384.761 249.152L388.729 256.32L383.033 268.8H375.225Z" fill="white"/>
<path d="M217.603 189.343C215.256 189.343 213.165 188.853 211.331 187.871C209.496 186.847 208.045 185.461 206.979 183.711C205.955 181.962 205.443 179.978 205.443 177.759V168.927C205.443 166.709 205.976 164.725 207.043 162.975C208.109 161.226 209.56 159.861 211.395 158.879C213.229 157.855 215.299 157.343 217.603 157.343C220.376 157.343 222.872 158.069 225.091 159.519C227.352 160.927 229.123 162.847 230.403 165.279C231.725 167.669 232.387 170.378 232.387 173.407C232.387 176.394 231.725 179.103 230.403 181.535C229.123 183.925 227.352 185.823 225.091 187.231C222.872 188.639 220.376 189.343 217.603 189.343ZM201.155 201.503V157.983H208.195V166.239L206.979 173.727L208.195 181.151V201.503H201.155ZM216.451 182.687C218.157 182.687 219.651 182.303 220.931 181.535C222.253 180.725 223.277 179.615 224.003 178.207C224.771 176.799 225.155 175.178 225.155 173.343C225.155 171.509 224.771 169.887 224.003 168.479C223.277 167.071 222.253 165.983 220.931 165.215C219.651 164.405 218.157 163.999 216.451 163.999C214.744 163.999 213.229 164.405 211.907 165.215C210.584 165.983 209.56 167.071 208.835 168.479C208.109 169.887 207.747 171.509 207.747 173.343C207.747 175.178 208.109 176.799 208.835 178.207C209.56 179.615 210.584 180.725 211.907 181.535C213.229 182.303 214.744 182.687 216.451 182.687ZM258.056 188.703V170.975C258.056 168.927 257.394 167.242 256.072 165.919C254.792 164.597 253.128 163.935 251.08 163.935C249.714 163.935 248.498 164.234 247.432 164.831C246.365 165.429 245.533 166.261 244.936 167.327C244.338 168.394 244.04 169.61 244.04 170.975L241.288 169.439C241.288 167.093 241.8 165.023 242.824 163.231C243.848 161.397 245.256 159.967 247.048 158.943C248.882 157.877 250.93 157.343 253.192 157.343C255.496 157.343 257.544 157.855 259.336 158.879C261.128 159.903 262.536 161.333 263.56 163.167C264.584 164.959 265.096 167.05 265.096 169.439V188.703H258.056ZM237 188.703V142.623H244.04V188.703H237ZM285.242 189.343C282.17 189.343 279.396 188.661 276.922 187.295C274.49 185.887 272.548 183.967 271.098 181.535C269.69 179.103 268.986 176.373 268.986 173.343C268.986 170.314 269.69 167.605 271.098 165.215C272.506 162.783 274.404 160.863 276.794 159.455C279.226 158.047 281.914 157.343 284.858 157.343C287.716 157.343 290.234 158.005 292.41 159.327C294.628 160.65 296.356 162.463 297.594 164.767C298.874 167.071 299.514 169.695 299.514 172.639C299.514 173.151 299.471 173.685 299.386 174.239C299.343 174.751 299.258 175.327 299.13 175.967H273.914V170.207H295.482L292.858 172.511C292.772 170.634 292.41 169.055 291.77 167.775C291.13 166.495 290.212 165.514 289.018 164.831C287.866 164.149 286.436 163.807 284.73 163.807C282.938 163.807 281.38 164.191 280.058 164.959C278.735 165.727 277.711 166.815 276.986 168.223C276.26 169.589 275.898 171.231 275.898 173.151C275.898 175.071 276.282 176.757 277.05 178.207C277.818 179.658 278.906 180.789 280.314 181.599C281.722 182.367 283.343 182.751 285.178 182.751C286.756 182.751 288.207 182.474 289.53 181.919C290.895 181.365 292.047 180.554 292.986 179.487L297.466 184.031C295.972 185.781 294.159 187.103 292.026 187.999C289.892 188.895 287.631 189.343 285.242 189.343ZM320.325 189.343C317.979 189.343 315.888 188.853 314.053 187.871C312.219 186.847 310.768 185.461 309.701 183.711C308.677 181.962 308.165 179.978 308.165 177.759V168.927C308.165 166.709 308.699 164.725 309.765 162.975C310.832 161.226 312.283 159.861 314.117 158.879C315.952 157.855 318.021 157.343 320.325 157.343C323.099 157.343 325.595 158.069 327.813 159.519C330.075 160.927 331.845 162.847 333.125 165.279C334.448 167.669 335.109 170.378 335.109 173.407C335.109 176.394 334.448 179.103 333.125 181.535C331.845 183.925 330.075 185.823 327.813 187.231C325.595 188.639 323.099 189.343 320.325 189.343ZM303.877 188.703V142.623H310.917V165.535L309.701 172.959L310.917 180.447V188.703H303.877ZM319.173 182.687C320.88 182.687 322.373 182.303 323.653 181.535C324.976 180.725 326 179.615 326.725 178.207C327.493 176.799 327.877 175.178 327.877 173.343C327.877 171.509 327.493 169.887 326.725 168.479C326 167.071 324.976 165.983 323.653 165.215C322.373 164.405 320.88 163.999 319.173 163.999C317.467 163.999 315.952 164.405 314.629 165.215C313.307 165.983 312.283 167.071 311.557 168.479C310.832 169.887 310.469 171.509 310.469 173.343C310.469 175.178 310.832 176.799 311.557 178.207C312.283 179.615 313.307 180.725 314.629 181.535C315.952 182.303 317.467 182.687 319.173 182.687ZM353.994 189.343C350.922 189.343 348.149 188.661 345.674 187.295C343.242 185.887 341.301 183.967 339.85 181.535C338.442 179.103 337.738 176.373 337.738 173.343C337.738 170.314 338.442 167.605 339.85 165.215C341.258 162.783 343.157 160.863 345.546 159.455C347.978 158.047 350.666 157.343 353.61 157.343C356.469 157.343 358.986 158.005 361.162 159.327C363.381 160.65 365.109 162.463 366.346 164.767C367.626 167.071 368.266 169.695 368.266 172.639C368.266 173.151 368.224 173.685 368.138 174.239C368.096 174.751 368.01 175.327 367.882 175.967H342.666V170.207H364.234L361.61 172.511C361.525 170.634 361.162 169.055 360.522 167.775C359.882 166.495 358.965 165.514 357.77 164.831C356.618 164.149 355.189 163.807 353.482 163.807C351.69 163.807 350.133 164.191 348.81 164.959C347.488 165.727 346.464 166.815 345.738 168.223C345.013 169.589 344.65 171.231 344.65 173.151C344.65 175.071 345.034 176.757 345.802 178.207C346.57 179.658 347.658 180.789 349.066 181.599C350.474 182.367 352.096 182.751 353.93 182.751C355.509 182.751 356.96 182.474 358.282 181.919C359.648 181.365 360.8 180.554 361.738 179.487L366.218 184.031C364.725 185.781 362.912 187.103 360.778 187.999C358.645 188.895 356.384 189.343 353.994 189.343Z" fill="white"/>
<path d="M63.9 138.3C60.3 138.3 55.3 138.1 48.9 137.7C42.7 137.1 36.6 136.3 30.6 135.3C24.6 134.3 20 132.9 16.8 131.1C12.6 128.5 8.80001 125.4 5.40001 121.8C1.80001 118.2 1.21444e-05 114 1.21444e-05 109.2C1.21444e-05 103.4 2.40001 98.3 7.20001 93.9C12 89.3 17.9 85.5 24.9 82.5C32.1 79.5 39.4 77.2 46.8 75.6C54.2 73.8 60.5 72.8 65.7 72.6C68.1 72.4 70.4 72.3 72.6 72.3C75 72.3 77.4 72.3 79.8 72.3C101.8 72.3 123.7 74.6 145.5 79.2C167.3 83.8 188.8 88.6 210 93.6C223.2 96.8 236.8 99.8 250.8 102.6C264.8 105.4 278.7 106.8 292.5 106.8C294.7 106.8 297.5 106.7 300.9 106.5C304.3 106.1 307.3 105.3 309.9 104.1C312.7 102.9 314.1 101 314.1 98.4C314.1 96.4 313.4 95 312 94.2C310.8 93.2 309.5 92.4 308.1 91.8C306.7 91 306 89.9 306 88.5C306 87.3 306.5 86.2 307.5 85.2C308.7 84.2 310 83.7 311.4 83.7C313.4 83.7 315.5 84.6 317.7 86.4C320.1 88.2 322.1 90.3 323.7 92.7C325.5 95.1 326.4 97.3 326.4 99.3C326.4 103.9 324.4 107.4 320.4 109.8C316.4 112 311.7 113.5 306.3 114.3C301.1 114.9 296.6 115.2 292.8 115.2C279 115.2 265.1 113.8 251.1 111C237.3 108.2 223.7 105.2 210.3 102C189.3 97 167.9 92.3 146.1 87.9C124.5 83.3 102.7 81 80.7 81C78.3 81 75.9 81 73.5 81C71.3 81 69 81.1 66.6 81.3C61 81.7 54.5 82.8 47.1 84.6C39.7 86.2 32.7 88.5 26.1 91.5C19.7 94.5 15 98.3 12 102.9C10.6 104.9 9.90001 106.8 9.90001 108.6C9.90001 111.8 11.3 114.7 14.1 117.3C17.1 119.9 20 122 22.8 123.6C25.4 125.2 29.3 126.5 34.5 127.5C39.9 128.3 45.3 128.9 50.7 129.3C56.3 129.5 60.6 129.6 63.6 129.6C71.8 129.6 79.9 129.1 87.9 128.1C95.9 127.1 103.7 125.6 111.3 123.6C112.5 123.2 114.5 122.5 117.3 121.5C120.1 120.5 123.1 119.5 126.3 118.5C129.7 117.3 132.5 116.3 134.7 115.5C137.1 114.5 138.4 114 138.6 114C140.2 114 141.5 114.6 142.5 115.8C143.5 116.8 144 117.9 144 119.1C144 120.5 143 121.7 141 122.7C137.2 124.7 132.9 126.5 128.1 128.1C123.3 129.5 118.6 130.8 114 132C97.8 136.2 81.1 138.3 63.9 138.3ZM106.5 288C103.3 288 101.7 286.5 101.7 283.5C101.7 281.3 102.2 278.7 103.2 275.7C104.4 272.7 105.4 270.2 106.2 268.2C111 256.4 116.6 244.7 123 233.1C129.6 221.5 136 210 142.2 198.6C144 195.2 146.7 190.4 150.3 184.2C153.9 177.8 157.5 171 161.1 163.8C164.9 156.4 168.1 149.6 170.7 143.4C173.5 137.2 174.9 132.5 174.9 129.3C174.9 128.3 174.7 127.5 174.3 126.9C173.9 126.1 173.7 125.3 173.7 124.5C173.7 123.5 174.2 122.6 175.2 121.8C176.2 121 177.4 120.6 178.8 120.6C181.4 120.6 183 121.6 183.6 123.6C184.2 125.6 184.5 127.5 184.5 129.3C184.5 133.3 183.2 138.6 180.6 145.2C178 151.6 174.8 158.5 171 165.9C167.4 173.1 163.8 180 160.2 186.6C156.6 193 153.7 198.2 151.5 202.2C145.3 213.4 139 224.7 132.6 236.1C126.2 247.5 120.6 259.1 115.8 270.9C115 273.1 114.2 275.3 113.4 277.5C112.8 279.7 112.2 281.9 111.6 284.1C111 286.7 109.3 288 106.5 288Z" fill="white"/>
</svg>
